<svg xmlns="http://www.w3.org/2000/svg" viewBox="0 0 6706.13 5553.59"><defs><style>.cls-1{fill:none;}.cls-1,.cls-2,.cls-3,.cls-4{stroke:#000;stroke-miterlimit:10;}.cls-1,.cls-2,.cls-4{stroke-width:38px;}.cls-3,.cls-4{fill:#fed700;}.cls-3{stroke-width:50px;}</style></defs><title>serpiente</title><g id="Capa_2" data-name="Capa 2"><g id="Capa_1-2" data-name="Capa 1"><path class="cls-1" d="M5005.62,1830.53a254.66,254.66,0,0,1,15.85,26.8A244.28,244.28,0,0,0,5005.62,1830.53Z"/><path class="cls-1" d="M4866.9,1814a38.81,38.81,0,0,0-3.95-3.21C4864.21,1811.81,4865.49,1812.86,4866.9,1814Z"/><path class="cls-1" d="M4673.88,1738.5c-31.62-7-63.09-19.57-79.58-26.72,0,0,9,19.44,16.06,48.88.17.73,2.32,10.41,2.49,11.14,6.33,28,9.38,47.32,13.13,75.76,5.92,45,4.36,31.18,7.89,47.71,34.27-16.95,65.64-42.21,97.37-63.44,22.28-14.91,72.11-50.61,74.12-52.05-11-6-33.63-14.25-55.57-21.2C4729.52,1752.18,4691.33,1742.35,4673.88,1738.5Z"/><path class="cls-1" d="M4995.16,2053.79c.75,2.37,1.51,4.73,2.29,7.09,10,30.22,24.67,57.33,44.62,79.92-19.85-22.56-34.47-49.6-44.44-79.72C4996.81,2058.64,4996,2056.22,4995.16,2053.79Z"/><path class="cls-1" d="M5166.76,2128.76c20.2,4.57,42.07,8,62.22,5.17,21.16-3,42.57-2.52,63.72.16l.24-.14c-21.28-2.73-42.82-3.22-64.12-.22-20.15,2.84-42-.6-62.22-5.17-24.24-5.49-42-17.38-55.61-33.13C5124.59,2111.28,5142.42,2123.25,5166.76,2128.76Z"/><path class="cls-1" d="M4909,1743.79q8.27,5.16,15.84,10.25l-3-2.08c-3.71-2.58-11.69-7.64-18.7-12.18,2.88,2,5.26,3.67,7.19,5.11Z"/><path class="cls-1" d="M3820.46,1186.75c-8.93-5.65-15.27-9.67-19.75-12.67h0s-.24.55-.22.49l.21-.49-.14-.1-.12-.08h0c-160.87-115.89-375.5-153.55-566.51-100.45-130.49,36.28-252.67,119.5-324.45,237.28q-2.07,3.39-4.08,6.82c-87.41,149.09-73.2,330.35-33,492,38.48,154.87,99.09,300.75,175.56,438.93a403.47,403.47,0,0,1,108.57-4.9c21.55-2.36,73.33,17.41,87.68,20.62q101.76,22.76,204.06,43c89.57,17.73,184.49,34.51,276.48,49.79q73.13,12.14,146.37,23.64,1.55.25,3.15.47s40.69,5.92,73.61,10.58l.07,0,.42.09c7.79,1.1,15.13,2.13,21.38,3,24.82,3.42,34.76,2.73,40.29,4.68,35.84,5.14,57.42,22.18,76.58,47.52,83.57-89.06,168-177.39,254.78-263.31,33.19-33.19,74.78-62,99.37-102.81-43.87-3.28-79.41-21.37-117.43-41.43-33-17.38-69-38.49-87.76-72-13.31-23.83-21.74-51-32.06-75.74-15.78-37.76-32.2-75.31-51.53-111.41-15.54-29-32.11-57.51-48.83-86-51.62-99.08-75.16-130.75-119.42-191.75-36-49.45-76.75-97.57-104.47-152.41-25.4-50.25-30.07-106.48-26.13-162.57q-.32,3.64-.6,7.12S3823.92,1188.95,3820.46,1186.75Z"/><path class="cls-2" d="M3947.93,2391.65l-.07,0,.49.07Z"/><path class="cls-2" d="M5301.63,2135.36c21.91,3.41,46.62,5.92,66.87,15.32a162.23,162.23,0,0,1,17.08,9.67,19,19,0,0,1,4.49,3.74,18.71,18.71,0,0,0-4.66-3.94,162.24,162.24,0,0,0-17.08-9.67c-20.24-9.4-45-11.91-66.87-15.32q-4.26-.66-8.53-1.21l-.24.14Q5297.17,2134.66,5301.63,2135.36Z"/><path class="cls-2" d="M5221.88,2194c13.78,8.07,25.45,19.15,36,31,4.16,4.65,9.28,9.74,14,15.18-4.8-5.51-10-10.67-14.21-15.38-10.59-11.84-22.27-22.92-36-31a15,15,0,0,1-3.58-2.9A14.9,14.9,0,0,0,5221.88,2194Z"/><path class="cls-2" d="M5258.27,2264.86q2.89,3.33,5.57,7c.89,1.22,2,2.63,3.15,4-1.13-1.3-2.14-2.64-3-3.8Q5261.26,2268.27,5258.27,2264.86Z"/><path class="cls-2" d="M2285.77,4584.7h.15l-4.08.13C2283.16,4584.81,2284.47,4584.77,2285.77,4584.7Z"/><path class="cls-2" d="M3868.14,604.9a2.92,2.92,0,0,1-.12.62c-55.27,177.69-25.57,324.63-38.53,452.9,21.27-123.84-11.18-275.57,42.25-449.76C3872.48,606.23,3870.9,605.16,3868.14,604.9Z"/><path class="cls-2" d="M3911.09,603.09c9.62-22.22,22.06-43.09,37.85-61.5a15.64,15.64,0,0,0,3.6-8.16,14.56,14.56,0,0,1-3,6.84A240.89,240.89,0,0,0,3911.09,603.09Z"/><path class="cls-2" d="M3861.83,1116.79c2.22-13.42,4.64-26.68,7.1-39.68,3.15-16.66,5.36-33.16,6.95-49.6-1.69,15.46-3.93,31.06-6.95,47C3866.58,1087,3864.13,1101.55,3861.83,1116.79Z"/><path class="cls-2" d="M3289.68,3564.57c-167.8-196.45-331-404.45-471.86-620.89-49-75.26-98.95-149.88-147.2-225.65-67.43-105.87-129-215.09-188-325.72q-71.89-134.79-130.57-276.14c-46.68-112-86.7-259.64-98.11-386.59,11.15,127.44,51.35,276.07,98.3,388.74q58.79,141.09,130.57,276.14c59,110.62,120.59,219.84,188,325.72,48.25,75.77,98.21,150.39,147.2,225.65,140.91,216.44,304.05,424.44,471.86,620.89,206.65,241.92,428.19,471.87,617.13,728.44,170,230.8,366.91,525.6,393.7,821.79-26-296.91-223.52-592.59-393.89-823.94C3717.87,4036.43,3496.33,3806.49,3289.68,3564.57Z"/><path class="cls-2" d="M3800.57,1174l-.12-.09h0Z"/><path class="cls-3" d="M6519.38,1712.84c-81-78.88-189.14-123.12-294.23-160.15-229.81-81-467.63-85.07-706.13-44.44a1918.12,1918.12,0,0,0-326.21,85.67q-79.45,28.55-156.16,64.07-39.12,18.13-77.38,38c-11.45,6-30.41,16.57-63.6,38.68,0,0-.05,0,0,0a4.25,4.25,0,0,0,.41.31l.49.33c2,1.32,4.27,2.82,6.7,4.39,7,4.54,15,9.59,18.7,12.18l3,2.08c36.81,25.89,61.58,48.48,80.74,76.5a244.28,244.28,0,0,1,15.85,26.8,384.37,384.37,0,0,1,19.55,46.25c14.74,41.37,22.88,85.05,36.56,126.85,7.9,24.15,17.93,47.07,33.4,65,13.58,15.74,31.37,27.64,55.61,33.13,20.2,4.57,42.07,8,62.22,5.17,21.3-3,42.84-2.51,64.13.22q4.27.55,8.53,1.21c21.91,3.41,46.62,5.92,66.87,15.32a162.24,162.24,0,0,1,17.08,9.67,18.71,18.71,0,0,1,4.66,3.94c5.86,7.16-.87,14.45-11.71,11.41-19.39-5.44-40.13-7.79-60-9.09-21.48-1.4-43-.14-64.35,2.6-10.09,1.29-24.87,1.74-33.68,6.49-6.65,3.59-6.57,10.56-2.21,15.41a15,15,0,0,0,3.58,2.9c13.78,8.07,25.45,19.15,36,31,4.21,4.71,9.4,9.87,14.21,15.38,6.06,6.95,11.5,14.45,13.6,22.32,1.5,5.62.53,15.23-5.29,18.41-4.93,2.7-9.71-1-13.28-5-1.2-1.37-2.27-2.78-3.15-4q-2.67-3.68-5.57-7c-19-21.88-44.78-32.86-71.5-41.61-30.79-10.09-60.07-23.91-88.41-38.58a192.5,192.5,0,0,1-56.29-43.85c-19.94-22.6-34.61-49.71-44.62-79.92-.78-2.36-1.54-4.72-2.29-7.09-14.54-45.61-24.53-92.72-40.63-137.78-16.21-45.39-50.08-71.55-80.89-96.45-2.68-2.16-4.83-4-6.74-5.53-1.42-1.17-2.7-2.22-3.95-3.21-7.18-5.69-13.49-9.49-39.79-23.2-6.83-3.56-17.73-7.88-17.73-7.88l-.07.05c-2,1.45-51.84,37.15-74.12,52.05-31.74,21.23-63.1,46.49-97.37,63.44-3.53-16.53-2-2.76-7.89-47.71-3.74-28.45-6.8-47.78-13.13-75.76-.17-.73-2.31-10.41-2.49-11.14-7.06-29.44-16.06-48.88-16.06-48.88h0s-7.1-3.29-10-4.57c0,0-22-10.65-32.83-16.27s-40.76-25-40.76-25c-32.2-24.93-60.15-51.45-82.4-85.57a354,354,0,0,1-29.17-54.56c-5.13-12-11.49-23.67-14.52-36.5-1.19-5-2.76-12,.17-16.76,4.71-7.7,19.55-9.62,27.76-10.74,10.38-1.42,26.92-5.55,36,1.24,7.47,5.58,9.68,16.12,13.81,24a421.11,421.11,0,0,0,22.48,38.43c15.44,23.08,35.57,45.48,59.26,61.2.88.58,1.75,1.18,2.64,1.74-27-169.18-42.55-360,55.56-500.48a1077.39,1077.39,0,0,1,89.82-106.53c29.53-30.75,64-73.72,106.23-86.76,22.32-6.89,46.45-3.31,69.22,1.91a503.35,503.35,0,0,1,193.2,91c24.46,28.74,27.41,71.06,17,107.34s-32.35,68-53.92,98.94l-233.25,334.92c20.34,11.7,45.33-2.7,64-16.91A2032.66,2032.66,0,0,0,5115.39,1275c40.07-43.28,76-89.58,114.06-134.47,15.12-17.81,24.9-34,46.3-44.82,19.44-9.83,65.13-2.39,68.23-1.23s2.52,7.67,2.52,7.67c-14.66,51.25-78.19,137.39-105.85,182.94-32.69,49.59-64.11,100-95.56,150.37-14.14,22.66-28.24,45.34-42,68.22l-40.52,55.16s22.48,2.48,43.78-2.37c13.93-3.17,27-11.9,34.14-18.09,127.84-110.8,229.24-232.36,328.06-369,8.25-11.4,17.32-23.44,30.63-28,5-1.74,10.54-2.34,15.14-5,3.9-2.29,6.82-5.9,9.65-9.42,29.14-36.33,59.32-59.87,97.22-86.95,50.15-35.84,81-123.34,80.12-183.57-1-64.5-91.53-114.9-135.33-152.74-63.82-55.13-128.71-109.1-196.7-159q-118.39-78.27-229-167.57c-63.15-51-164.37-100.79-239.39-130.1-23.78-9.29-48.34-16.53-71.85-26.49-72.46-30.73-140.92-65-215-92.63-43.7-16.28-87.81-32.68-134-39.3-79.5-11.4-159.84,6.73-239.85,13.82-205.22,18.17-392.83-57.46-592.53-68.1C3295.8,15.53,2896.2,13.56,2562.35,143.39c-84.44,32.84-166.06,69.24-240.15,117.34-4.71,2.35-48.6,35.33-64.55,46.8-3.46,2.11-32,24-41.81,31.85,0,0-1.2.93-1.73,1.39-69.45,56.12-164.9,135.79-266.26,331.2-213.39,405.08-209.06,835.66-83.61,1249.65,32,105.66,71.93,210.24,118.12,313q14.84,33,30.36,65.75,61.06,128.89,131.57,253c117.71,208,252.91,405.81,398.4,595.3Q2635,3269,2732.34,3385.11c227.84,272.95,472.67,531.84,715.6,791.71,110.07,117.75,222.7,242.44,286.08,392.77,35.9,85.15,62.27,201.68,6,284.33-85.75,126-271.73,75.74-388.73,31.9-47.73-17.88-93.84-39.22-140.3-59.51-56.45-24.65-110.22-55.4-165.33-83.13-8.53-4.29-70.37-40.31-70.37-40.31l.56.6c8.71,9.35,120.45,129.4,129.17,138,258.55,255.11,467,451.37,821.32,561.39,18.67,5.8,37.6,11.14,56.71,15.52,37,8.5,74.66,13.43,112.45,11.19,57.3-3.39,115.37-24.92,153.42-67.9,43.64-49.3,55.45-119.25,54.77-185.08q-.31-29.81-3-59.64c-26.79-296.19-223.74-591-393.7-821.79-188.94-256.57-410.48-486.52-617.13-728.44-167.8-196.45-331-404.45-471.86-620.89-49-75.26-98.95-149.88-147.2-225.65-67.43-105.87-129-215.09-188-325.72q-71.89-134.79-130.57-276.14c-46.95-112.67-87.15-261.31-98.3-388.74q-1.33-15.17-2.1-29.92c-11-213.23,32.72-355.82,138-534.77,67.65-115,149.7-201.9,239-300.52,83.77-92.51,240.23-185.41,359.05-219.76,143.53-41.5,294.54-48.1,443.89-52.52,87-2.57,174.11-4.5,260.82-12.46,85.12-7.81,171.66-25.82,253.49-50.33a7.42,7.42,0,0,1,3.57-.46c2.3.47,3,2.32,2.88,4.57a15.64,15.64,0,0,1-3.6,8.16c-15.79,18.41-28.23,39.28-37.85,61.5-14.45,33.37-22.52,69.77-25.9,105.45q-2.72,96.89-4.57,193.81c-.8,42.57-.77,83.71-4.76,125.17-1.58,16.44-3.79,32.94-6.95,49.6-2.46,13-4.88,26.26-7.1,39.68-3.84,23.22-7,46.92-8.71,70.65-3.94,56.09.73,112.32,26.13,162.57,27.72,54.84,68.47,103,104.47,152.41,44.26,61,67.8,92.66,119.42,191.75,16.72,28.52,33.28,57,48.83,86,19.33,36.1,35.75,73.65,51.53,111.41,10.32,24.7,18.75,51.91,32.06,75.74,18.74,33.55,54.8,54.66,87.76,72,38,20.05,73.56,38.15,117.43,41.43-24.59,40.78-66.19,69.62-99.37,102.81-86.82,85.92-171.21,174.24-254.78,263.31l-11.44,12.2c-85.32,91.06-167,187.28-257.9,272.87-51.62,48.63-106.61,94.09-160.67,139.76-42.69,36.1,170.91,222.18,197.71,248.51,63,61.93,129.06,120.72,195.74,178.68,57.29,49.8,122.78,130.27,199.72,147.12,5.86,1.28,12,2.23,17.81.58a21.87,21.87,0,0,0,2.37-.83c5-2.08,9.23-5.88,13.27-9.58,178.06-163.58,337.91-347,495-531q31.41-36.78,62.71-73.53c172-201.75,384.67-388.93,598.74-545.75,245.81-180.07,641.35-425,959.49-303.88,67.95,25.88,129,75.58,157.05,142.67,24.11,57.7,22.27,123.63,6.73,184.2-10.18,39.66-6.85,28.85-22.5,68.49-14.36,36.38-22.41,58.4-37.26,94.42-2.62,6.36-21.46,44.78-31.63,60.52l-68.33,64.69c40.64-15.38,75.78-38.5,76.67-39.11,45.13-31.36,95.82-84.14,117.5-118.54,32.33-51.29,60.41-112,71.31-171.75C6704.35,2072,6666,1855.71,6519.38,1712.84ZM4384.9,308.95c19.89,4.76,40.21,18,58.65,26.91,21.06,10.22,41.4,21.86,62.6,31.8,49.76,23.32,98.88,48,148.9,70.8,50.5,23,101.39,44.72,150.78,70.17,17.43,9,36,15.12,53,24.84,2.85,3.05,3.14,6.15.18,9.31-63.79,3.31-127.68-2.43-190.8-11.38-60.9-8.64-122.88-17.53-181.85-35.16a209.76,209.76,0,0,1-20.43-7.16c-34.06-14.15-57.4-42.64-69.72-78.17-7.78-22.42-13.5-45.55-20.62-68.22C4372.88,334.11,4366.15,304.46,4384.9,308.95Zm90.17,1639.36c-42-11.3-77.62-29.21-104.26-64a463.88,463.88,0,0,1-59.55-103.23c-49.79-119.33-97.51-228.51-147.3-347.84-16.47-39.48-30.69-91.58-42.43-132.71-13-45.53-20-92.52-26.6-139.41-15.36-109.38-27.72-225.19,16-326.61,47.09,46.12,116.26,61,181.94,66.48,60.59,5.1,121.29,4,181.87-.82,76.34-6.12,152.48-18.24,227.93-31.62-140.85,74-308.66,67.2-467.52,58.62-13.53-.73-28.32-1.1-39.13,7.08-7.7,5.83-12,15-15.76,23.92-36.89,86.3-43.91,182-32.31,275.12,9.14,73.41,23.72,141.8,52.61,209.91l130.16,306.86c21,49.55,42.89,100.4,80.85,138.55,22.73,22.85,82.43,48,113,58.32C4527.94,1954.61,4483.17,1950.49,4475.07,1948.31Z"/><path class="cls-4" d="M3800.71,1174.09h0l-.21.49C3800.47,1174.64,3800.76,1174.13,3800.71,1174.09Z"/><path class="cls-3" d="M3047.94,2248.46c-76.47-138.18-137.08-284.06-175.56-438.93-40.16-161.63-54.37-342.89,33-492q2-3.43,4.08-6.82c71.78-117.78,194-201,324.45-237.28,191-53.1,405.64-15.44,566.51,100.45l.12.09.14.1h0c16.44-37,24.71-75.39,28.78-115.66,13-128.26-16.74-275.21,38.53-452.9a2.92,2.92,0,0,0,.12-.62,2.79,2.79,0,0,0-3.57-2.92c-282,82.07-605.18-2.7-884.07,91-274.43,92.16-541,467-614.31,646.83-21.06,51.63-62.37,222.82-56.4,369.93,4.67,115,28.93,248.56,74.34,354.31a5421.31,5421.31,0,0,0,362.27,698.53c240.25,391,535.61,729.47,842.52,1067.71,297.13,327.45,579.76,684.26,725.6,1107.3,33.5,97.17,59.65,200,46.61,302-12.94,101.22-71.27,206.26-165.6,244.85l-2,.84c256.17,86.06,549.6,49.14,714.72-156.66,115.42-143.86,155.8-338.32,136.61-521.76s-93.35-357.29-186.54-516.46c-162.47-277.51-380.45-513.5-613.35-737-155.2-149-317-292.37-473.45-438.82C3496.8,2857.33,3228.26,2574.3,3047.94,2248.46Z"/><path class="cls-3" d="M320.17,3694.6c1.66-17.67,9.3-53.28,9.3-53.28,20.17-81.67,95-141.35,175.7-165s167.06-16.87,250.38-5.2c358.2,50.16,699.86,187.12,1016.54,361.86,260.49,143.73,503.16,316.5,747.18,486,227,157.66,466.6,347.16,744.34,400.2,79.87,15.25,179.7,8.92,219-62.24,12.58-22.76,18.79-47.36,20.11-73,6.36-124.25-102.14-273.32-158.9-358.29-51.23-76.69-109-148.73-167.44-220.24-187-228.72-401.32-446.22-634.94-631.18q-55-43.51-111.31-84.55C1928.33,2924.59,1311.58,2679,688.5,2655.29c-114.39-4.36-238.93-.82-350.27,27.42-87.88,22.29-173,67.09-227,139.95C47,2909.32,34.54,3024.08,41.56,3131.71a1018.86,1018.86,0,0,0,74.13,319.58c9.57,23.35,101.43,200.84,159.37,256.4,0,0,28.94,38.29,41.14,51.22,4,4.25,2.8,2.75,2.71,2.65h0A432.83,432.83,0,0,1,320.17,3694.6Z"/><path class="cls-3" d="M1967.79,4031.19c-49.08-26.33-99-44.72-155.63-41.93-76.81,3.79-149.74,26.16-227.6,25.25-123-1.43-417.32-2.11-485.57-130.73-57.54-108.45,273.61-73.86,311.53-79.51,18.88-2.81,42.12-12.86,37.4-34.17-2.12-9.54-9.41-17.09-18.55-20.57-199.78-76.12-413-150.3-626.25-178.57-40.1-5.32-79.33-17.63-120.08-17-96.39,1.6-238.57,19.4-282.79,120.72-34.37,78.74,14.08,167.94,66.9,235.69q27,34.68,56.18,67.55c147.21,166.27,332.59,297.87,533.73,392.75,125.18,59,256.62,104.27,390.83,137.84,276.76,69.23,552.59,85.13,834,76.28l4.08-.13q56.42-1.82,113.16-4.89c51.53-2.76,102.95-7.4,154.39-11.4,21-1.64,145.71,2.52,207.74,16.95l-1.43-1-523.92-372.06C2149.94,4146.89,2062.91,4082.23,1967.79,4031.19Z"/><path class="cls-3" d="M6360.58,2549.22c75.95-99.51,150.27-228.63,124.51-358.38-8.74-44-30-83.89-63.75-113-62.23-53.77-138.39-73.35-218.91-77.11-34.19-1.59-65.6-2.93-110.58-1.75-22.91.6-28.53,6.48-27.88,27.55.13,4.18.31,8.56,2.43,12.16,8.58,14.59,54.93,18.56,72.08,27.83,27.93,15.1,37.23,35.21,42.05,59.49,6,30.15-28.29,86.4-42.31,108.71-31.72,50.47-60.78,86-109.07,122.51-43.59,32.95-90.82,60.91-140,84.56-99.66,47.88-207.14,78.2-315.7,97.84a1829.55,1829.55,0,0,1-265.84,28.22c-13.88.45-27.46.75-40.72,1.34-54.3,2.42-103.23,9.8-145.87,53.42-87.43,89.71-175.72,178.21-259.65,271.28-5.61,6.22-24.86,29.26-24.87,29.27s30.5,9.25,42.32,11.31c264.8,46.07,545.13,33.29,808.69-16.58,168.28-31.84,334.13-88.34,474.23-182.81C6236.54,2684.61,6304,2623.35,6360.58,2549.22Z"/><path class="cls-3" d="M1910,2190.11c-32.61-73.7-62.08-148.56-86.73-225.37-7.64-23.81-16-53-17.63-58.5l-.27-.94s-125-43.16-181-61.52c-79.12-25.95-160.08-48.91-237.25-79.89q-117.08-47-231.85-99.53-111.11-50.86-219.8-106.79c-123.23-63.42-246-133.28-364.29-206.07-59.58-36.67-118.06-75.3-173.4-118.17-76.78-59.47-211.11-151.81-186.43-263.9,18.83-85.52,180-79.75,241.44-65.31,20.31,4.77,110.26,11.31,95.26-32.94-4.6-13.58-18.49-21.48-31.61-27.26-79.5-35-168.21-36.67-253.48-31.32l-4.48.29C177.8,818.23,47.75,838.37,29.23,936,17.78,996.3,30.41,1071.76,57,1126.41c27.18,55.87,63.18,104.5,100.59,152.2,23.68,30.19,49.27,59.63,77.78,86.49,111.77,104,238.47,194.88,364.25,281.3,88.67,60.92,175.88,124.54,270,177,89.86,50,183,95.47,274,143.52q101.68,53.67,205.33,103.49c55,26.45,109.47,54.1,165.24,78.94l197.14,82.85c70.67,25.48,150.07,68.1,226,68.11,11.41,0,21.44-.17,21.44-.17s-7.34-16.7-7.87-17.93C1937.57,2251.35,1923.6,2220.82,1910,2190.11Z"/><path class="cls-3" d="M3948.35,2391.74l-.49-.07c-32.92-4.66-73.61-10.58-73.61-10.58q-1.6-.22-3.15-.47Q3797.88,2369,3724.73,2357c-92-15.28-186.92-32.06-276.48-49.79q-102.29-20.24-204.06-43c-14.35-3.21-66.13-23-87.68-20.62-3.07.34-5.53,1.12-7.17,2.46-18,14.68,7.16,50.71,15.91,64.13,37.27,57.21,73.09,115.38,113.25,170.36,48.22,66,102,128,150.07,194.12,25.18,34.68,58,52.22,97.23,59,49.79,8.6,100,15.16,151,12.54,22.41-1.15,40.41-7.88,56.25-24.22,58-59.81,117.51-118.06,173.86-179.48,31.38-34.2,64.92-66.51,98.77-98.3,12.41-11.65,17.2-27.84,10.85-38.75-1.94-3.32-3.62-5-6.46-6-5.53-2-15.46-1.27-40.29-4.68C3963.49,2393.87,3956.14,2392.84,3948.35,2391.74Z"/><path d="M4249.76,3446.07c-76.94-16.85-142.43-97.32-199.72-147.12-66.68-58-132.69-116.76-195.74-178.68-26.8-26.33-240.41-212.41-197.71-248.51,54.06-45.67,109-91.13,160.67-139.76,90.86-85.59,172.58-181.81,257.9-272.87l11.44-12.2c-19.15-25.34-40.73-42.38-76.58-47.52,2.84,1,4.52,2.71,6.46,6,6.36,10.91,1.56,27.1-10.85,38.75-33.85,31.79-67.39,64.1-98.77,98.3C3850.51,2603.91,3791,2662.17,3733,2722c-15.83,16.34-33.84,23.06-56.25,24.22-51,2.62-101.19-3.94-151-12.54-39.27-6.78-72-24.33-97.23-59-48-66.15-101.85-128.1-150.07-194.12-40.16-55-76-113.15-113.25-170.36-8.75-13.43-33.9-49.46-15.91-64.13,1.65-1.34,4.1-2.13,7.17-2.46a403.47,403.47,0,0,0-108.57,4.9c180.32,325.83,448.86,608.87,723.55,866,156.44,146.45,349.18,295.11,504.38,444.07-56.67-62,6.63-89.87,11.34-102.45-.77.32-18.84-9.68-19.65-9.45C4261.8,3448.31,4255.62,3447.36,4249.76,3446.07Z"/><path d="M6471.54,2532.37c10.18-15.75,29-54.16,31.63-60.52,14.86-36,22.9-58,37.26-94.42,15.65-39.64,12.32-28.83,22.5-68.49,15.54-60.57,17.38-126.5-6.73-184.2-28-67.09-89.1-116.79-157.05-142.67C6081,1860.93,5685.47,2105.89,5439.65,2286c-214.07,156.82-426.76,344-598.74,545.75-20.88,24.49-49.18,66.9-70.12,91.42a231.22,231.22,0,0,0,25.41,8.68c11,3,22.39,5.57,33.29,8.55,0,0,26.24-40.28,31.85-46.5,83.93-93.07,172.22-181.57,259.65-271.28,42.63-43.62,91.57-51,145.87-53.42,13.26-.59,26.84-.88,40.72-1.34a1829.55,1829.55,0,0,0,265.84-28.22c108.56-19.63,216-50,315.7-97.84,49.22-23.65,96.45-51.61,140-84.56,48.29-36.5,77.35-72,109.07-122.51,14-22.31,48.3-78.56,42.31-108.71-4.82-24.27-14.13-44.39-42.05-59.49-17.16-9.28-63.5-13.24-72.08-27.83-2.12-3.6-2.3-8-2.43-12.16-.65-21.07,5-26.95,27.88-27.55,45-1.18,76.39.15,110.58,1.75,80.53,3.75,156.68,23.33,218.91,77.11,33.74,29.16,55,69,63.75,113,25.76,129.75-48.56,258.87-124.51,358.38-56.57,74.12-124,135.38-198.86,185.82,0,0,4.13,19.85,4.14,19.84,93.33-46,147.7-71.06,255.12-144.89l-.78.46Z"/><path d="M1864.67,1902.73l-58.84-16.31c0,.06,9.82,54.52,17.46,78.33,24.65,76.81,54.12,151.67,86.73,225.37,13.59,30.7,27.56,61.23,40.87,92.06.53,1.23,7.87,17.93,7.87,17.93l.09.17h.07c0-.06,11.15,18.3,11.12,18.24,22.88.12,40.36.93,53.89.32-10.34-21.82-31.67-62.15-41.57-84.17C1936.16,2131.86,1896.69,2008.39,1864.67,1902.73Z"/><path d="M3044.95,4743.71c55.12,27.74,108.89,58.49,165.33,83.13,46.46,20.29,92.58,41.63,140.3,59.51,117,43.84,303,94.15,388.73-31.9,56.22-82.65,29.85-199.18-6-284.33-63.37-150.33-176-275-286.08-392.77-242.93-259.87-721.32-771.79-731.32-783.79-53.33-12-67.67,16.67-162-32-16.67-8.33,434.78,415.65,621.78,644.37,58.47,71.52,116.21,143.55,167.44,220.24,56.76,85,165.26,234,158.9,358.29-1.31,25.66-7.53,50.26-20.11,73-39.33,71.16-139.17,77.49-219,62.24-277.74-53-517.34-242.54-744.34-400.2-244-169.47-486.69-342.24-747.18-486-316.69-174.74-658.34-311.7-1016.54-361.86-83.31-11.67-169.63-18.4-250.38,5.2s-155.53,83.29-175.7,165c0,0-7.64,35.6-9.3,53.28a432.83,432.83,0,0,0-1.26,66.94l-9.82,15c61.48,72.49,144.43,155.71,206.21,213.83,0,0-30.11-56.83-48.14-80-52.82-67.75-101.27-156.95-66.9-235.69,44.22-101.31,186.4-119.11,282.79-120.72,40.75-.68,80,11.64,120.08,17,213.3,28.27,426.47,102.45,626.25,178.57,9.13,3.48,16.43,11,18.55,20.57,4.72,21.31-18.52,31.36-37.4,34.17-37.93,5.65-369.08-28.94-311.53,79.51,68.25,128.63,362.61,129.3,485.57,130.73,77.86.91,150.79-21.46,227.6-25.25,56.6-2.79,106.56,15.6,155.63,41.93,95.11,51,182.14,115.7,268.06,181l518,377.78c42.53,13.7,80.11,31.05,108.07,47.14q70.44,40.51,114,66.3l-.56-.6S3036.42,4739.41,3044.95,4743.71Z"/><path d="M4361.14,5239.53c13-101.95-13.12-204.82-46.61-302-145.84-423-428.47-779.85-725.6-1107.3C3282,3492,2986.65,3153.58,2746.4,2762.54A5421.31,5421.31,0,0,1,2384.13,2064c-45.41-105.75-69.67-239.32-74.34-354.31-6-147.1,35.34-318.3,56.4-369.93,73.35-179.84,339.88-554.67,614.31-646.83,278.88-93.66,602-8.88,884.07-91a2.79,2.79,0,0,1,3.57,2.92c2.77.26,4.35,1.33,3.6,3.76-53.43,174.18-21,325.91-42.25,449.76-4.07,40.27-12.34,78.7-28.78,115.66,4.49,3,10.82,7,19.75,12.67,3.47,2.19,32.07,7.81,32.07,7.81q.27-3.47.6-7.12c1.67-23.73,4.87-47.44,8.71-70.65,2.3-15.23,4.74-29.81,7.1-42.27,3-15.95,5.25-31.55,6.95-47,4-41.46,4-82.59,4.76-125.17q1.82-96.91,4.57-193.81c3.38-35.68,11.45-72.08,25.9-105.45a240.89,240.89,0,0,1,38.42-62.82,14.56,14.56,0,0,0,3-6.84c.17-2.25-.58-4.1-2.88-4.57a7.42,7.42,0,0,0-3.57.46c-81.83,24.51-168.37,42.52-253.49,50.33-86.71,8-173.82,9.88-260.82,12.46-149.34,4.41-300.35,11-443.89,52.52C2869.08,679,2712.62,771.87,2628.85,864.38c-89.3,98.61-171.34,185.55-239,300.52-105.31,179-149.06,321.54-138,534.77q.76,14.73,2.1,29.92c11.41,127,51.42,274.55,98.11,386.59q58.79,141.09,130.57,276.14c59,110.62,120.59,219.84,188,325.72,48.25,75.77,98.21,150.39,147.2,225.65,140.91,216.44,304.05,424.44,471.86,620.89,206.65,241.92,428.19,471.87,617.13,728.44,170.37,231.36,367.86,527,393.89,823.94q2.7,29.82,3,59.64c.68,65.84-11.13,135.79-54.77,185.08-38,43-96.12,64.51-153.42,67.9-37.78,2.24-79.79,15.48-116.78,7l212.45,66C4285.54,5464,4348.2,5340.75,4361.14,5239.53Z"/><path d="M4484.81,1525.52a421.11,421.11,0,0,1-22.48-38.43c-4.13-7.86-6.35-18.4-13.81-24-9.08-6.79-25.62-2.66-36-1.24-8.21,1.12-23.05,3-27.76,10.74-2.92,4.78-1.36,11.71-.17,16.76,3,12.83,9.39,24.47,14.52,36.5a354,354,0,0,0,29.17,54.56c22.24,34.12,50.19,60.64,82.4,85.57,0,0,30,19.33,40.76,25s32.83,16.27,32.83,16.27c2.93,1.28,10,4.57,10,4.57h0c16.49,7.15,48,19.74,79.58,26.72,17.45,3.85,55.64,13.68,75.91,20.09,21.94,6.95,44.57,15.2,55.57,21.2l.07-.05s10.91,4.32,17.73,7.88c26.3,13.71,32.61,17.52,39.79,23.2a38.81,38.81,0,0,1,3.95,3.21c1.91,1.58,4.06,3.37,6.74,5.53,30.81,24.9,64.68,51.07,80.89,96.45,16.09,45.06,26.09,92.17,40.63,137.78.83,2.42,1.66,4.85,2.46,7.29,10,30.13,24.59,57.17,44.44,79.72a192.5,192.5,0,0,0,56.29,43.85c28.34,14.67,57.63,28.5,88.41,38.58,26.72,8.76,52.51,19.74,71.5,41.61q3,3.42,5.74,7.21c.84,1.16,1.85,2.5,3,3.8,3.57,4.06,8.35,7.74,13.28,5,5.82-3.19,6.78-12.8,5.29-18.41-2.1-7.87-7.54-15.37-13.6-22.32-4.76-5.44-9.87-10.53-14-15.18-10.59-11.84-22.27-22.92-36-31a14.9,14.9,0,0,1-3.75-3.1c-4.35-4.85-4.44-11.82,2.21-15.41,8.8-4.75,23.59-5.2,33.68-6.49,21.35-2.73,42.87-4,64.35-2.6,19.87,1.3,40.61,3.65,60,9.09,10.84,3,17.56-4.25,11.71-11.41a19,19,0,0,0-4.49-3.74,162.23,162.23,0,0,0-17.08-9.67c-20.24-9.4-45-11.91-66.87-15.32q-4.46-.69-8.94-1.26c-21.15-2.68-42.55-3.14-63.72-.16-20.15,2.84-42-.6-62.22-5.17-24.34-5.51-42.17-17.48-55.78-33.33-15.47-17.93-25.49-40.85-33.4-65-13.68-41.8-21.82-85.48-36.56-126.85a384.37,384.37,0,0,0-19.55-46.25,254.66,254.66,0,0,0-15.85-26.8c-19.16-28-43.93-50.61-80.74-76.5q-7.58-5.1-15.84-10.25l1.37,1.11c-1.93-1.44-4.31-3.16-7.19-5.11-2.42-1.57-4.72-3.07-6.7-4.39-24-15.25-71.33-40.15-152-63.91-49.27-14.51-87.16-24.45-126.2-42.2-44.67-20.31-71.38-40.62-71.38-40.62-1-.64-1.9-1.29-2.85-1.94C4520.37,1571,4500.24,1548.6,4484.81,1525.52Z"/><path d="M4411.61,1888.61c-38-38.16-59.83-89-80.85-138.55L4200.6,1443.2c-28.89-68.11-43.46-136.49-52.61-209.91-11.6-93.14-4.58-188.82,32.31-275.12,3.8-8.88,8.06-18.09,15.76-23.92,10.8-8.18,25.6-7.81,39.13-7.08,158.86,8.58,326.67,15.35,467.52-58.62-75.45,13.37-151.59,25.5-227.93,31.62-60.58,4.85-121.28,5.92-181.87.82-65.68-5.53-134.85-20.36-181.94-66.48-43.74,101.42-31.37,217.23-16,326.61,6.58,46.89,13.6,93.88,26.6,139.41,11.74,41.14,26,93.23,42.43,132.71,49.79,119.33,97.51,228.51,147.3,347.84a463.88,463.88,0,0,0,59.55,103.23c26.64,34.78,62.25,52.69,104.26,64,8.1,2.18,52.87,6.3,49.51-1.38C4494,1936.61,4434.34,1911.46,4411.61,1888.61Z"/><path d="M4396.2,410.9c12.32,35.52,35.66,64,69.72,78.17a209.76,209.76,0,0,0,20.43,7.16c59,17.63,120.95,26.52,181.85,35.16,63.12,9,127,14.69,190.8,11.38,3-3.16,2.68-6.26-.18-9.31-17-9.72-35.57-15.86-53-24.84-49.39-25.44-100.27-47.17-150.78-70.17-50-22.78-99.14-47.47-148.9-70.8-21.2-9.94-41.54-21.58-62.6-31.8-18.44-9-38.76-22.14-58.65-26.91-18.75-4.49-12,25.17-9.32,33.74C4382.7,365.34,4388.42,388.47,4396.2,410.9Z"/></g></g></svg>